<svg width="163" height="146" viewBox="0 0 163 146" fill="none" xmlns="http://www.w3.org/2000/svg">
<path d="M81 146H42.7671C39.3938 145.445 35.9196 144.428 32.4454 142.983C27.7767 141.041 23.1164 138.302 18.7253 134.789C7.53723 125.838 0.858033 114.064 0 103.684V14.9849C0.984214 6.54697 7.92419 0 16.3363 0C24.252 0 30.864 5.79058 32.437 13.5058L32.3192 88.7161C32.3192 89.0859 32.2183 89.5 32.2183 89.8171C31.6883 92.9099 31.6463 96.0111 31.9239 99.2971C32.0416 100.709 32.2099 102.096 32.437 103.474C35.3139 121.375 46.7039 136.276 62.9813 142.655C63.6038 142.907 64.2431 143.143 64.8824 143.361C69.8624 145.067 75.2714 146 81 146Z" fill="#5F35F5"/>
<path d="M163 14.279V104.6C163 105.289 162.924 105.979 162.754 106.651C160.866 114.156 156.962 122.275 150.78 129.309C144.699 136.243 137.374 140.815 130.328 143.554C127.16 144.798 124.002 145.613 120.936 146H81.2261C87.0356 146 92.5572 145.033 97.6638 143.26C99.1628 142.739 100.619 142.159 102.042 141.504C117.447 134.444 128.27 119.795 130.328 102.961C130.48 101.751 130.582 100.524 130.641 99.2971C130.751 96.8515 131.064 94.2882 130.751 91.9434L130.692 87.052C130.853 86.1108 130.573 83.7071 130.573 82.7238C130.573 81.7405 130.489 80.774 130.328 79.8327L130.091 78.3452C129.98 78.3788 130.108 78.2527 130.006 78.3031C128.295 71.7057 122.824 66.6884 116.092 65.8143C115.406 65.7219 114.711 65.6798 114 65.6798C105.785 65.6798 98.968 71.8234 97.6638 79.8831C97.5029 80.8076 97.4267 81.7573 97.4267 82.7238C97.4267 83.6903 97.5029 84.64 97.6638 85.5645V100.491C95.8939 107.937 89.3645 113.458 81.5733 113.458C72.4186 113.458 65 105.827 65 96.4145V14.1613C66.3296 6.12676 73.1384 0 81.3362 0C89.5254 0 96.3343 6.12676 97.6638 14.1613V29.7009C97.5876 30.3564 97.5453 31.0204 97.5453 31.7011C97.5453 32.3819 97.5876 33.0458 97.6638 33.7014C98.6208 42.1729 105.624 48.7451 114.119 48.7451C122.088 48.7451 128.744 42.9545 130.328 35.2478C130.565 34.1048 130.692 32.9198 130.692 31.7011C130.692 30.4825 130.565 29.2975 130.328 28.1545V14.3294C131.632 6.26963 138.449 0.126065 146.664 0.126065C154.87 0.126065 161.67 6.24442 163 14.279Z" fill="#5F35F5"/>
</svg>
