<svg width="165" height="148" viewBox="0 0 165 148" fill="none" xmlns="http://www.w3.org/2000/svg">
<path d="M82 147H43.7671C40.3938 146.445 36.9196 145.428 33.4454 143.983C28.7767 142.041 24.1164 139.302 19.7253 135.789C8.53723 126.838 1.85803 115.064 1 104.684V15.9849C1.98421 7.54697 8.92419 1 17.3363 1C25.2521 1 31.8639 6.79058 33.437 14.5058L33.3192 89.7161C33.3192 90.0859 33.2856 90.4557 33.2183 90.8171C32.6883 93.9099 32.6463 97.0111 32.9239 100.297C33.0416 101.709 33.2099 103.096 33.437 104.474C36.3139 122.375 47.7039 137.276 63.9813 143.655C64.6038 143.907 65.2431 144.143 65.8824 144.361C70.8624 146.067 76.2714 147 82 147Z" fill="#5F35F5" stroke="#ED1C24" stroke-width="0.25" stroke-miterlimit="10"/>
<path d="M164 15.279V105.6C164 106.289 163.924 106.979 163.754 107.651C161.866 115.156 157.962 123.275 151.78 130.309C145.699 137.243 138.374 141.815 131.328 144.554C128.16 145.798 125.002 146.613 121.936 147H82.2261C88.0356 147 93.5572 146.033 98.6638 144.26C100.163 143.739 101.619 143.159 103.042 142.504C118.447 135.444 129.27 120.795 131.328 103.961C131.48 102.751 131.582 101.524 131.641 100.297C131.751 97.8515 132.064 95.2882 131.751 92.9434L131.692 88.052C131.853 87.1108 131.573 84.7071 131.573 83.7238C131.573 82.7405 131.489 81.774 131.328 80.8327L131.091 79.3452C130.98 79.3788 131.108 79.2527 131.006 79.3031C129.295 72.7057 123.824 67.6884 117.092 66.8143C116.406 66.7219 115.711 66.6798 115 66.6798C106.785 66.6798 99.968 72.8234 98.6638 80.8831C98.5029 81.8076 98.4267 82.7573 98.4267 83.7238C98.4267 84.6903 98.5029 85.64 98.6638 86.5645V101.491C96.8939 108.937 90.3645 114.458 82.5733 114.458C73.4186 114.458 66 106.827 66 97.4145V15.1613C67.3296 7.12676 74.1384 1 82.3362 1C90.5254 1 97.3343 7.12676 98.6638 15.1613V30.7009C98.5876 31.3564 98.5453 32.0204 98.5453 32.7011C98.5453 33.3819 98.5876 34.0458 98.6638 34.7014C99.6208 43.1729 106.624 49.7451 115.119 49.7451C123.088 49.7451 129.744 43.9545 131.328 36.2478C131.565 35.1048 131.692 33.9198 131.692 32.7011C131.692 31.4825 131.565 30.2975 131.328 29.1545V15.3294C132.632 7.26963 139.449 1.12606 147.664 1.12606C155.87 1.12606 162.67 7.24442 164 15.279Z" fill="#5F35F5" stroke="#ED1C24" stroke-width="0.25" stroke-miterlimit="10"/>
</svg>
